<?xml version="1.0" encoding="utf-8"?>
<!-- Generator: Adobe Illustrator 24.2.3, SVG Export Plug-In . SVG Version: 6.00 Build 0)  -->
<svg version="1.1" id="Lager_1" xmlns="http://www.w3.org/2000/svg" xmlns:xlink="http://www.w3.org/1999/xlink" x="0px" y="0px"
	 viewBox="0 0 3884.6 795.8" style="enable-background:new 0 0 3884.6 795.8;" xml:space="preserve">
<style type="text/css">
	.st0{fill:none;}
	.st1{fill:#FF7036;}
	.st2{fill:#6D6D7A;}
</style>
<g>
	<g>
		<g>
			<path d="M0,0h184.5v67.8H73v124.6h106.1v67.8H73v213.4H0V0z"/>
			<path d="M300.6,0v473.6h-73V0H300.6z"/>
			<path d="M365.1,473.6V0h84.6c18.9,66.8,75.4,300.6,80.4,325.7h0.8c-3.4-58.2-3.5-124.9-3.5-202.7V0h67.4v473.6h-81.4
				c-14.9-56.6-78-316.3-82.7-336.2H430c3.5,57.3,3.2,121.5,3.2,206.7v129.5H365.1z"/>
			<path d="M722.3,346.9l-16.6,126.7h-74.3L707.7,0h103.2l79.2,473.6h-76.3l-18.6-126.7H722.3z M786.6,279.7
				C775.7,199.3,765.4,123,760,69.4h-2.7c-2,39-16.3,140.4-25.7,210.3H786.6z"/>
			<path d="M925.1,473.6V0h84.6c18.9,66.8,75.4,300.6,80.4,325.7h0.8c-3.4-58.2-3.5-124.9-3.5-202.7V0h67.4v473.6h-81.4
				c-14.9-56.6-78-316.3-82.7-336.2H990c3.5,57.3,3.2,121.5,3.2,206.7v129.5H925.1z"/>
			<path d="M1269.7,334.2v29.3c0,35.2,10.6,54.9,38.3,54.9c28.5,0,35.8-27,35.8-57.7c0-50.9-11-66.7-61.8-106.8
				c-51-40.2-78.2-66-78.2-136.1c0-62.4,18.9-125.4,104.4-125.3c87.4,0.1,100.9,62.4,100.9,113.8v25.3h-72.4v-23.3
				c0-33-5.6-52.9-29.8-52.9c-23.7,0-30,20.6-30,52c0,33.5,6.3,49.8,48,80.3c70.9,52.4,92.6,82.8,92.6,162.1
				c0,67.2-23.5,130.8-111.9,130.8c-87.6,0-109-55.8-109-118.2v-28.1H1269.7z"/>
			<path d="M1683,473.6h-56.9c-2-8.3-3.4-25.5-4-35.6c-13.1,31.5-40.6,42.5-71.2,42.5c-69.7,0-92.1-50.4-92.1-130.7V127.4
				c0-77.4,30.1-134.3,112.4-134.3c99.5,0,110,73.1,110,124v15.4h-73v-18.9c0-25-3.6-53.8-37-53.8c-26.6,0-38,18.4-38,56.2v242.3
				c0,37.9,11,57.7,37.4,57.7c31.7,0,39.4-26.5,39.4-75.2v-69.1h-41.4v-62.8H1683V473.6z"/>
			<path d="M1815.5,261.8v211.8h-73V0h101.2c72.1,0,114.6,28.9,114.6,114.1v18c0,72.8-29.9,91.3-48.2,98.8
				c27.6,13,43.4,32.9,43.4,97.1c0,39.9-0.7,116.8,4.3,145.5h-70.5c-6.3-28.6-5-106.4-5-140.8c0-57.7-7.4-71-49.8-71H1815.5z
				 M1815.5,201.5h16.7c38.6,0,52.9-14.6,52.9-66.1v-16.2c0-36.6-7.6-58.9-49-58.9h-20.6V201.5z"/>
			<path d="M2080.6,346.9L2064,473.6h-74.3L2066,0h103.2l79.2,473.6h-76.3l-18.6-126.7H2080.6z M2144.8,279.7
				c-10.8-80.4-21.2-156.8-26.6-210.3h-2.7c-2,39-16.3,140.4-25.7,210.3H2144.8z"/>
			<path d="M2283.4,0h97.2c82,0,113.5,38.4,113.5,107.8v17.4c0,67.2-23.3,86.6-44,95.2c21.1,8.4,52.7,26.1,52.7,95v35.9
				c0,80.1-33.4,122.3-115.8,122.3h-103.7V0z M2372.4,192.8c40.8,0,53.1-12.6,53.1-59.6v-18.5c0-39.3-14-54.5-48.9-54.5h-22.6v132.5
				H2372.4z M2353.9,413.9h24.4c42.2,0,52.7-18.6,52.7-64.5v-31.5c0-46.2-11.7-66-58.2-66h-18.8V413.9z"/>
			<path d="M2550,0h97.2c82,0,113.5,38.4,113.5,107.8v17.4c0,67.2-23.3,86.6-44,95.2c21.1,8.4,52.7,26.1,52.7,95v35.9
				c0,80.1-33.4,122.3-115.8,122.3H2550V0z M2639,192.8c40.8,0,53.1-12.6,53.1-59.6v-18.5c0-39.3-14-54.5-48.9-54.5h-22.6v132.5
				H2639z M2620.5,413.9h24.4c42.2,0,52.7-18.6,52.7-64.5v-31.5c0-46.2-11.7-66-58.2-66h-18.8V413.9z"/>
			<path d="M2886.7,346.9l-16.6,126.7h-74.3L2872.1,0h103.2l79.2,473.6h-76.3l-18.6-126.7H2886.7z M2950.9,279.7
				c-10.8-80.4-21.2-156.8-26.6-210.3h-2.7c-2,39-16.3,140.4-25.7,210.3H2950.9z"/>
			<path d="M3162.5,261.8v211.8h-73V0h101.2c72.1,0,114.6,28.9,114.6,114.1v18c0,72.8-29.9,91.3-48.2,98.8
				c27.6,13,43.4,32.9,43.4,97.1c0,39.9-0.7,116.8,4.3,145.5h-70.5c-6.3-28.6-5-106.4-5-140.8c0-57.7-7.4-71-49.8-71H3162.5z
				 M3162.5,201.5h16.7c38.6,0,52.9-14.6,52.9-66.1v-16.2c0-36.6-7.6-58.9-49-58.9h-20.6V201.5z"/>
			<path d="M3359.6,473.6V0h84.6c18.9,66.8,75.4,300.6,80.4,325.7h0.8c-3.4-58.2-3.5-124.9-3.5-202.7V0h67.4v473.6h-81.4
				c-14.9-56.6-78-316.3-82.7-336.2h-0.7c3.5,57.3,3.2,121.5,3.2,206.7v129.5H3359.6z"/>
			<path d="M3716.8,346.9l-16.6,126.7h-74.3L3702.2,0h103.2l79.2,473.6h-76.3l-18.6-126.7H3716.8z M3781,279.7
				c-10.8-80.4-21.2-156.8-26.6-210.3h-2.7c-2,39-16.3,140.4-25.7,210.3H3781z"/>
		</g>
		<g>
			<path d="M57.9,680.2H17.2v72.8h46.1l-2.4,15.8H0V588.2h60.2v15.9h-43v60.3h40.7V680.2z"/>
			<path d="M79.1,588.2h17v88.4h0.3c7.6-16.7,28.1-61.3,40.2-88.4h18.8l-34.9,72l38.3,108.6H140l-31-90.6l-12.9,25.5v65.1h-17V588.2
				z"/>
			<path d="M242.6,631.7v92.6c0,31.1-12.7,46.9-38.8,46.9c-27.7,0-37.2-18.1-37.2-46.7v-92.7c0-29.8,13.2-46,38.4-46
				C231.5,585.8,242.6,604.7,242.6,631.7z M184.2,631.3v94.4c0,21.6,7.8,29.9,20.4,29.9c13.2,0,20.4-8.1,20.4-30.9v-93.4
				c0-20.3-7.1-29.8-20.5-29.8C190.7,601.6,184.2,610.6,184.2,631.3z"/>
			<path d="M266.2,768.9V588.2H287c10.3,35.3,36.3,131.3,39.5,147.3h0.4c-1-24.8-1.4-50.2-1.4-79.6v-67.7h16.3v180.7h-20.1
				c-10.5-36.8-36.9-136.3-40.7-152.3h-0.3c1.2,21.7,1.8,51.6,1.8,84.3v68.1H266.2z"/>
			<path d="M441.1,631.7v92.6c0,31.1-12.7,46.9-38.8,46.9c-27.7,0-37.2-18.1-37.2-46.7v-92.7c0-29.8,13.2-46,38.4-46
				C430.1,585.8,441.1,604.7,441.1,631.7z M382.7,631.3v94.4c0,21.6,7.8,29.9,20.4,29.9c13.2,0,20.4-8.1,20.4-30.9v-93.4
				c0-20.3-7.1-29.8-20.5-29.8C389.2,601.6,382.7,610.6,382.7,631.3z"/>
			<path d="M552.2,691.6c0-33.7,0.6-68.8,1.2-87.8h-0.3c-4.6,30.1-19.3,111.1-29.4,165.1h-17c-7.7-46.4-22.9-133.2-27.3-165.2h-0.5
				c0.5,20.9,1.5,61.9,1.5,92.9v72.3h-16.1V588.2h25.4c10.6,55.2,23.5,124.9,26,147.3h0.3c2.8-21.8,17.6-95.5,28.1-147.3h25v180.7
				h-16.8V691.6z"/>
			<path d="M613.4,588.2v180.7h-17.2V588.2H613.4z"/>
			<path d="M625.6,795.8c7.6-19.2,12.9-43,13.4-63.5H655c-0.5,21.6-7.5,47.9-16.1,63.5H625.6z"/>
			<path d="M719.6,718.5v10.3c0,17.9,6.3,27.3,19.5,27.3c13.4,0,19.1-9.2,19.1-30.8c0-21.6-4.8-30.3-23.7-45
				c-19.3-15.1-29-24-29-50.6c0-22.7,6.8-44.1,34.1-44c25.4,0.2,32.9,16.7,32.9,40.4v8.1h-17.1v-7.6c0-15.6-3.1-25.7-16.2-25.7
				c-13.2,0-16.6,11.6-16.6,26.3c0,17.7,3.6,24.1,20.3,36.9c24.6,18.7,32.5,29,32.5,59c0,25.3-6.8,48.2-36.6,48.2
				c-28.2,0-36.4-18.6-36.4-42.4v-10.3H719.6z"/>
			<path d="M795.8,588.2h31.4c26.4,0,38.8,13.5,38.8,42v11.1c0,26.5-7.5,46.6-40,46.6H813v81h-17.2V588.2z M813,673.3h11.5
				c21.2,0,24.2-13.1,24.2-32.2v-9.9c0-15-3.4-28.2-22.7-28.2h-13V673.3z"/>
			<path d="M892.6,709l-9.2,59.9H866l29.8-180.7h24.6l31.1,180.7h-18l-9.8-59.9H892.6z M921.4,693.2c-6.8-41.9-11.5-73-13.1-89.3
				h-0.7c-0.6,13.7-7.3,54.9-12.5,89.3H921.4z"/>
			<path d="M984.7,683.7v85.2h-17.2V588.2h29.9c27.1,0,39.7,11.9,39.7,41.1v8.6c0,23.8-8,34.5-18.4,38.1c11.7,4.1,16.8,13,16.8,37.1
				c0,15.5-0.3,44.3,1.8,55.8h-16.8c-2.3-11.3-1.9-41.9-1.9-54.4c0-23.7-3.4-30.8-21.7-30.8H984.7z M984.7,668.9h13.1
				c17.7,0,22-11,22-30.2v-8.5c0-17.1-4.9-27.3-23.5-27.3h-11.6V668.9z"/>
			<path d="M1077.9,709l-9.2,59.9h-17.4l29.8-180.7h24.6l31.1,180.7h-18l-9.8-59.9H1077.9z M1106.6,693.2
				c-6.8-41.9-11.5-73-13.1-89.3h-0.7c-0.6,13.7-7.3,54.9-12.5,89.3H1106.6z"/>
			<path d="M1152.8,768.9V588.2h20.7c10.3,35.3,36.3,131.3,39.5,147.3h0.4c-1-24.8-1.4-50.2-1.4-79.6v-67.7h16.3v180.7h-20.1
				c-10.5-36.8-36.9-136.3-40.7-152.3h-0.3c1.2,21.7,1.8,51.6,1.8,84.3v68.1H1152.8z"/>
			<path d="M1255.9,588.2h31.4c39.2,0,43.1,25.1,43.1,52.7v71.8c0,27.8-4.2,56.1-44.6,56.1h-29.9V588.2z M1273.1,753.8h11.4
				c22.7,0,28.4-12.5,28.4-37.3v-78c0-21.9-3.9-35.2-28.1-35.2h-11.6V753.8z"/>
			<path d="M1411.8,680.2h-40.7v72.8h46.1l-2.4,15.8h-60.9V588.2h60.2v15.9h-43v60.3h40.7V680.2z"/>
			<path d="M1541.9,631.7v92.6c0,31.1-12.7,46.9-38.8,46.9c-27.7,0-37.2-18.1-37.2-46.7v-92.7c0-29.8,13.2-46,38.4-46
				C1530.8,585.8,1541.9,604.7,1541.9,631.7z M1483.5,631.3v94.4c0,21.6,7.8,29.9,20.4,29.9c13.2,0,20.4-8.1,20.4-30.9v-93.4
				c0-20.3-7.1-29.8-20.5-29.8C1490,601.6,1483.5,610.6,1483.5,631.3z"/>
			<path d="M1632.5,717.6v5.9c0,23.5-4.3,47.8-35.7,47.8c-30.8,0-35.7-22.5-35.7-48.8v-92.1c0-29.2,12.4-44.5,35.9-44.5
				c29.5,0,34.7,21.3,34.7,44.6v6.8h-17.5v-7.8c0-14.9-2.1-27.9-17.5-27.9c-14.5,0-18,11.7-18,28.5v93.4c0,19.6,4.3,32.2,18.6,32.2
				c15,0,17.6-13.2,17.6-31.1v-7H1632.5z"/>
			<path d="M1651.8,588.2h17.2v75.7h39.4v-75.7h17.2v180.7h-17.2v-89.1H1669v89.1h-17.2V588.2z"/>
			<path d="M1789.5,588.2h31.4c26.4,0,38.8,13.5,38.8,42v11.1c0,26.5-7.5,46.6-40,46.6h-12.9v81h-17.2V588.2z M1806.7,673.3h11.5
				c21.2,0,24.2-13.1,24.2-32.2v-9.9c0-15-3.4-28.2-22.7-28.2h-13V673.3z"/>
			<path d="M1937.3,680.2h-40.7v72.8h46.1l-2.4,15.8h-60.9V588.2h60.2v15.9h-43v60.3h40.7V680.2z"/>
			<path d="M1975.7,683.7v85.2h-17.2V588.2h29.9c27.1,0,39.7,11.9,39.7,41.1v8.6c0,23.8-8,34.5-18.4,38.1
				c11.7,4.1,16.8,13,16.8,37.1c0,15.5-0.3,44.3,1.8,55.8h-16.8c-2.3-11.3-1.9-41.9-1.9-54.4c0-23.7-3.4-30.8-21.7-30.8H1975.7z
				 M1975.7,668.9h13.1c17.7,0,22-11,22-30.2v-8.5c0-17.1-4.9-27.3-23.5-27.3h-11.6V668.9z"/>
			<path d="M2062.7,718.5v10.3c0,17.9,6.3,27.3,19.5,27.3c13.4,0,19.1-9.2,19.1-30.8c0-21.6-4.8-30.3-23.7-45
				c-19.3-15.1-29-24-29-50.6c0-22.7,6.8-44.1,34.1-44c25.4,0.2,32.9,16.7,32.9,40.4v8.1h-17.1v-7.6c0-15.6-3.1-25.7-16.2-25.7
				c-13.2,0-16.6,11.6-16.6,26.3c0,17.7,3.6,24.1,20.3,36.9c24.6,18.7,32.5,29,32.5,59c0,25.3-6.8,48.2-36.6,48.2
				c-28.2,0-36.4-18.6-36.4-42.4v-10.3H2062.7z"/>
			<path d="M2212.9,631.7v92.6c0,31.1-12.7,46.9-38.8,46.9c-27.7,0-37.2-18.1-37.2-46.7v-92.7c0-29.8,13.2-46,38.4-46
				C2201.8,585.8,2212.9,604.7,2212.9,631.7z M2154.5,631.3v94.4c0,21.6,7.8,29.9,20.4,29.9c13.2,0,20.4-8.1,20.4-30.9v-93.4
				c0-20.3-7.1-29.8-20.5-29.8C2161,601.6,2154.5,610.6,2154.5,631.3z"/>
			<path d="M2236.5,768.9V588.2h20.7c10.3,35.3,36.3,131.3,39.5,147.3h0.4c-1-24.8-1.4-50.2-1.4-79.6v-67.7h16.3v180.7h-20.1
				c-10.5-36.8-36.9-136.3-40.7-152.3h-0.3c1.2,21.7,1.8,51.6,1.8,84.3v68.1H2236.5z"/>
			<path d="M2339.6,588.2h17.2v165.2h45.4l-2.1,15.5h-60.5V588.2z"/>
			<path d="M2431.4,588.2v180.7h-17.2V588.2H2431.4z"/>
			<path d="M2528.7,768.9H2515c-0.5-2.9-1-12-1.1-16.1c-4.4,13.7-14.6,18.5-26.4,18.5c-24.6,0-32.7-18.3-32.7-46.7v-91.7
				c0-29.7,12.1-47,37.6-47c30,0,36.1,20.9,36.1,44.7v4.3h-17.2v-4.5c0-13.4-1.5-28.8-19.1-28.8c-13.1,0-19.9,8.2-19.9,30.1V725
				c0,18.6,4.8,30.8,18.7,30.8c17.6,0,20.4-16.5,20.4-40.6v-29.4h-21.1v-15.1h38.4V768.9z"/>
			<path d="M2606.9,588.2v141.1c0,15.3,5.5,26.1,19.7,26.1c14.5,0,19.5-9.9,19.5-25.9V588.2h17.4v140.6c0,27.8-12.5,42.4-37.2,42.4
				c-24.2,0-36.5-13.7-36.5-41.9V588.2H2606.9z"/>
			<path d="M2705.1,604.1h-29.3v-15.9h75.5v15.9h-29v164.8h-17.2V604.1z"/>
			<path d="M2792.1,768.9l-31.5-180.7h18.6l12.6,82.8c3.8,25.5,9.5,57.6,11.1,75.8h0.4c1.4-17.7,7.3-49.9,11.1-75.1l13-83.5h18.3
				l-31.8,180.7H2792.1z"/>
			<path d="M2919.7,680.2h-40.7v72.8h46.1l-2.4,15.8h-60.9V588.2h60.2v15.9h-43v60.3h40.7V680.2z"/>
			<path d="M3010.5,717.6v5.9c0,23.5-4.3,47.8-35.7,47.8c-30.8,0-35.7-22.5-35.7-48.8v-92.1c0-29.2,12.4-44.5,35.9-44.5
				c29.5,0,34.7,21.3,34.7,44.6v6.8h-17.5v-7.8c0-14.9-2.1-27.9-17.5-27.9c-14.5,0-18,11.7-18,28.5v93.4c0,19.6,4.3,32.2,18.6,32.2
				c15,0,17.6-13.2,17.6-31.1v-7H3010.5z"/>
			<path d="M3029.8,588.2h17v88.4h0.3c7.6-16.7,28.1-61.3,40.2-88.4h18.8l-34.9,72l38.3,108.6h-18.7l-31-90.6l-12.9,25.5v65.1h-17
				V588.2z"/>
			<path d="M3120.1,588.2h17.2v165.2h45.4l-2.1,15.5h-60.5V588.2z"/>
			<path d="M3212,588.2v180.7h-17.2V588.2H3212z"/>
			<path d="M3239.4,768.9V588.2h20.7c10.3,35.3,36.3,131.3,39.5,147.3h0.4c-1-24.8-1.4-50.2-1.4-79.6v-67.7h16.3v180.7H3295
				c-10.5-36.8-36.9-136.3-40.7-152.3h-0.3c1.2,21.7,1.8,51.6,1.8,84.3v68.1H3239.4z"/>
			<path d="M3412.3,768.9h-13.7c-0.5-2.9-1-12-1.1-16.1c-4.4,13.7-14.6,18.5-26.4,18.5c-24.6,0-32.7-18.3-32.7-46.7v-91.7
				c0-29.7,12.1-47,37.6-47c30,0,36.1,20.9,36.1,44.7v4.3h-17.2v-4.5c0-13.4-1.5-28.8-19.1-28.8c-13.1,0-19.9,8.2-19.9,30.1V725
				c0,18.6,4.8,30.8,18.7,30.8c17.6,0,20.4-16.5,20.4-40.6v-29.4h-21.1v-15.1h38.4V768.9z"/>
			<path d="M3446,711l-1.8-91.8v-31.1h18.6v31.1l-1.6,91.7H3446z M3444.6,768.9v-23.7h17.7v23.7H3444.6z"/>
		</g>
	</g>
</g>
</svg>
